<?xml version="1.0" encoding="utf-8"?>
<!-- Generator: Adobe Illustrator 20.0.0, SVG Export Plug-In . SVG Version: 6.00 Build 0)  -->
<svg version="1.1" id="Layer_1" xmlns="http://www.w3.org/2000/svg" xmlns:xlink="http://www.w3.org/1999/xlink" x="0px" y="0px"
	 viewBox="0 0 17.3 368.6" style="enable-background:new 0 0 17.3 368.6;" xml:space="preserve">
<style type="text/css">
	.st0{fill:#8B6F4C;}
</style>
<g>
	<g>
		<path class="st0" d="M0.3,276.8v-7.9c8.4,27.7,12,63.5,11.7,99.5h-1.8C10.5,335.6,7.6,303.4,0.3,276.8z"/>
		<path class="st0" d="M5,7.7c-1.4,3.5-3.2,4.8-5,5.3V8.4c1.6-0.5,3.1-1.8,4.1-5.2c0.3-1,0.5-2.1,0.8-3.2h2C6.5,3,5.9,5.7,5,7.7z"/>
		<path class="st0" d="M0.3,305.4c0.6,2.5,1.1,5,1.6,7.4c3.5,17.2,5.3,36.4,5.6,55.8H5.6c-0.2-14.9-1.4-29.4-3.6-43.6
			c-0.5-3.2-1.1-6.8-1.8-10.5V305.4z"/>
		<path class="st0" d="M8.9,38.7c4.8-7.6,7,7.1,7.6,16.9c0.2,2.9,0.5,5.7,0.8,8.5v11.6c-1.4-7-2.3-14.7-2.8-22.6
			c-0.1-7.2-2.1-8.8-6-4.7c-0.3,3.4-0.4,6.8-0.3,10.2c0.1,7.8,1.2,15.9,1.8,23.6c1.7,20.2-0.3,44.1-3.7,62.4
			C5,151.5,2.6,156.6,0,158.1v-3.8c3.8-3.4,6.1-20.5,7-29c1.5-13.8,2.2-27.7,1.2-41.9C7.5,72.4,3.6,46.9,8.9,38.7z"/>
		<path class="st0" d="M17.3,258v7.2c-4-11.5-6-26.3-6.3-42.2c-0.3-15.2,2.7-27.9,6.3-39.5v7.7c-2.4,8.4-4.2,17.6-4.5,28.2
			C12.5,233,14.2,247,17.3,258z"/>
		<path class="st0" d="M17.3,22.1c-3.2-5.5-6.8-7.1-10.6-1.4C1.8,28,0.9,44.2,0.9,57.3C1,72.6,5.7,116,0,131.4v-8.2
			c2.2-12.1,1-33.6,0-48V38.1C0.8,31,2.3,24.4,4.6,19c3.8-8.9,8.6-8.2,12.7-2.3V22.1z"/>
		<path class="st0" d="M4.9,219.9c1.3-22.9,5.7-43.5,12.4-58.2v6.1c-6,14.5-9.8,34.4-10.7,55.9c-1.2,27.8,4,53.6,10.7,74.8v7.2
			C9.4,282,3.1,252.1,4.9,219.9z"/>
		<path class="st0" d="M5.6,169.8c0.3,3.5,0.4,6.7,0.2,10.3C5.4,186,3.8,190.9,2,194.2c-0.7,1.2-1.3,1.9-2,2.3v-4.8
			c1.2-1.4,2.3-3.8,3-6.6c0.5-1.9,0.7-4.1,0.9-6.2c0.4-4.6,0-6.9-1.7-8.4c-0.8-0.7-1.5-1-2.3-1.2v-4.6c1.2,0.3,2.4,0.9,3.5,1.9
			C4.1,167.1,5.4,167.9,5.6,169.8z"/>
		<path class="st0" d="M12.2,117.7c0.2-3.9,0.1-6.5,1.4-8.7c1.1-1.9,2.4-3,3.7-3.7v4.6c-1.4,0.7-2.9,2.2-3.1,4.8
			c-0.6,7.8-0.1,22.1,3.1,24.9v4.7C13.4,141.8,11.7,128,12.2,117.7z"/>
	</g>
</g>
</svg>
