<?xml version="1.0" encoding="utf-8"?>
<!-- Generator: Adobe Illustrator 20.0.0, SVG Export Plug-In . SVG Version: 6.00 Build 0)  -->
<svg version="1.1" id="Layer_1" xmlns="http://www.w3.org/2000/svg" xmlns:xlink="http://www.w3.org/1999/xlink" x="0px" y="0px"
	 viewBox="0 0 736.8 17.3" style="enable-background:new 0 0 736.8 17.3;" xml:space="preserve">
<style type="text/css">
	.st0{fill:#8B6F4C;}
</style>
<g>
	<g>
		<path class="st0" d="M460,0h7.9c-27.7,8.4-63.5,12-99.5,11.7V9.9C401.2,10.1,433.9,7.1,460,0z"/>
		<path class="st0" d="M729.1,5c-3.5-1.4-4.8-3.2-5.3-5h4.6c0.5,1.6,1.8,3.1,5.2,4.1c1,0.3,2.1,0.5,3.2,0.8v2
			C733.8,6.5,731.1,5.9,729.1,5z"/>
		<path class="st0" d="M431.6,0c-2.5,0.6-5,1.1-7.4,1.6c-17.2,3.5-36.4,5.3-55.8,5.6V5.3c14.9-0.2,29.4-1.4,43.6-3.6
			c3.2-0.5,6.8-1.1,10.5-1.8H431.6z"/>
		<path class="st0" d="M698.1,8.8c7.6,4.8-7.1,7-16.9,7.6c-2.9,0.2-5.7,0.5-8.5,0.8h-11.6c7-1.4,14.7-2.3,22.6-2.8
			c7.2-0.1,8.8-2.1,4.7-6c-3.4-0.3-6.8-0.4-10.2-0.3c-7.8,0.1-15.9,1.2-23.6,1.8c-20.2,1.7-44.1-0.3-62.4-3.7
			C585.3,5,580.3,2.6,578.7,0h3.8c3.4,3.8,20.5,6.1,29,7c13.8,1.5,27.7,2.2,41.9,1.2C664.4,7.5,689.9,3.6,698.1,8.8z"/>
		<path class="st0" d="M478.8,17.3h-7.2c11.5-4,26.3-6,42.2-6.3c15.2-0.3,27.9,2.7,39.5,6.3h-7.7c-8.4-2.4-17.6-4.2-28.2-4.5
			C503.8,12.5,489.8,14.2,478.8,17.3z"/>
		<path class="st0" d="M714.7,17.3c5.5-3.2,7.1-6.8,1.4-10.6c-7.3-4.9-23.4-5.8-36.5-5.8C664.2,1,620.9,5.7,605.4,0h8.2
			c12.1,2.2,33.6,1,48,0h37.1c7.1,0.8,13.7,2.3,19.1,4.6c8.9,3.8,8.2,8.6,2.3,12.7H714.7z"/>
		<path class="st0" d="M516.9,4.9c22.9,1.3,43.5,5.7,58.2,12.4h-6.1c-14.5-6-34.4-9.8-55.9-10.7c-27.8-1.2-53.6,4-74.8,10.7H431
			C454.8,9.4,484.7,3.1,516.9,4.9z"/>
		<path class="st0" d="M567,5.6c-3.5,0.3-6.7,0.4-10.3,0.2c-5.9-0.3-10.8-1.9-14.1-3.7c-1.2-0.7-1.9-1.3-2.3-2h4.8
			c1.4,1.2,3.8,2.3,6.6,3c1.9,0.5,4.1,0.7,6.2,0.9c4.6,0.4,6.9,0,8.4-1.7c0.7-0.8,1-1.5,1.2-2.3h4.6c-0.3,1.2-0.9,2.4-1.9,3.5
			C569.7,4.1,568.9,5.4,567,5.6z"/>
		<path class="st0" d="M619.2,12.2c3.9,0.2,6.5,0.1,8.7,1.4c1.9,1.1,3,2.4,3.7,3.7h-4.6c-0.7-1.4-2.2-2.9-4.8-3.1
			c-7.8-0.6-22.1-0.1-24.9,3.1h-4.7C595,13.3,608.9,11.7,619.2,12.2z"/>
	</g>
</g>
<g>
	<g>
		<path class="st0" d="M276.8,17h-7.9c27.7-8.4,63.5-12,99.5-11.7v1.8C335.6,6.8,303.4,9.7,276.8,17z"/>
		<path class="st0" d="M7.7,12.3c3.5,1.4,4.8,3.2,5.3,5H8.4c-0.5-1.6-1.8-3.1-5.2-4.1c-1-0.3-2.1-0.5-3.2-0.8v-2
			C3,10.9,5.7,11.5,7.7,12.3z"/>
		<path class="st0" d="M305.4,17c2.5-0.6,5-1.1,7.4-1.6c17.2-3.5,36.4-5.3,55.8-5.6v1.8c-14.9,0.2-29.4,1.4-43.6,3.6
			c-3.2,0.5-6.8,1.1-10.5,1.8H305.4z"/>
		<path class="st0" d="M38.7,8.5c-7.6-4.8,7.1-7,16.9-7.6c2.9-0.2,5.7-0.5,8.5-0.8h11.6c-7,1.4-14.7,2.3-22.6,2.8
			c-7.2,0.1-8.8,2.1-4.7,6c3.4,0.3,6.8,0.4,10.2,0.3C66.5,9,74.6,7.9,82.2,7.3c20.2-1.7,44.1,0.3,62.4,3.7
			c6.9,1.3,11.9,3.7,13.5,6.3h-3.8c-3.4-3.8-20.5-6.1-29-7c-13.8-1.5-27.7-2.2-41.9-1.2C72.4,9.8,46.9,13.7,38.7,8.5z"/>
		<path class="st0" d="M258,0h7.2c-11.5,4-26.3,6-42.2,6.3c-15.2,0.3-27.9-2.7-39.5-6.3h7.7c8.4,2.4,17.6,4.2,28.2,4.5
			C233,4.8,247,3.1,258,0z"/>
		<path class="st0" d="M22.1,0c-5.5,3.2-7.1,6.8-1.4,10.6c7.3,4.9,23.4,5.8,36.5,5.8c15.3-0.1,58.7-4.8,74.1,0.9h-8.2
			c-12.1-2.2-33.6-1-48,0H38.1C31,16.5,24.4,15.1,19,12.7C10.1,8.9,10.8,4.1,16.7,0H22.1z"/>
		<path class="st0" d="M219.9,12.4C197,11.1,176.4,6.6,161.8,0h6.1c14.5,6,34.4,9.8,55.9,10.7c27.8,1.2,53.6-4,74.8-10.7h7.2
			C282,8,252.1,14.2,219.9,12.4z"/>
		<path class="st0" d="M169.8,11.8c3.5-0.3,6.7-0.4,10.3-0.2c5.9,0.3,10.8,1.9,14.1,3.7c1.2,0.7,1.9,1.3,2.3,2h-4.8
			c-1.4-1.2-3.8-2.3-6.6-3c-1.9-0.5-4.1-0.7-6.2-0.9c-4.6-0.4-6.9,0-8.4,1.7c-0.7,0.8-1,1.5-1.2,2.3h-4.6c0.3-1.2,0.9-2.4,1.9-3.5
			C167.1,13.2,167.9,11.9,169.8,11.8z"/>
		<path class="st0" d="M117.7,5.1c-3.9-0.2-6.5-0.1-8.7-1.4c-1.9-1.1-3-2.4-3.7-3.7h4.6c0.7,1.4,2.2,2.9,4.8,3.1
			c7.8,0.6,22.1,0.1,24.9-3.1h4.7C141.8,4,128,5.7,117.7,5.1z"/>
	</g>
</g>
</svg>
